<svg width="101" height="35" viewBox="0 0 101 35" xmlns="http://www.w3.org/2000/svg">
    <g fill-rule="nonzero" fill="none">
        <path d="M56.673 7.441a.916.916 0 0 1-.746-.402 4.446 4.446 0 0 0-1.958-1.58c-.466-.185-.684-.742-.497-1.207.186-.464.746-.681 1.212-.495a6.289 6.289 0 0 1 2.766 2.23c.28.433.186.99-.249 1.269a.846.846 0 0 1-.528.185zM60.682 6.203a.916.916 0 0 1-.746-.403c-.497-.712-2.113-3.003-4.755-4.056-.466-.186-.684-.743-.497-1.208.186-.464.715-.619 1.212-.495 1.523.372 4.382 2.54 5.563 4.707.249.433.187.99-.248 1.27a.787.787 0 0 1-.529.185z" fill="#C05636"/>
        <path fill="#131A6C" d="M28.11 32.554h-6.153v-2.292l4.009-6.905h3.325l-4.009 6.905h2.828v-2.477h2.984v2.477h1.15v2.292h-1.15v2.291H28.11zM39.952 34.845h-2.984V23.357h9.23v2.292h-6.246v2.694h4.91v2.291h-4.91zM48.468 34.845h-3.264l4.414-11.488h3.325l4.414 11.488h-3.233l-.746-2.043h-4.164l-.746 2.043zm1.492-4.18h2.672l-1.336-3.87-1.336 3.87zM68.359 34.845h-3.17l-4.01-6.905v6.905h-2.983V23.357h3.17l4.01 6.905v-6.905h2.983zM70.006 32.46c3.046.156 5.097.249 6.185.249.249 0 .466-.062.622-.217.155-.155.217-.34.217-.588v-1.487h-3.854c-1.15 0-2.02-.247-2.548-.774-.529-.526-.777-1.362-.777-2.508v-.495c0-1.146.248-1.982.777-2.509.528-.526 1.367-.774 2.548-.774h5.843v2.292h-5.19c-.653 0-.995.34-.995.99v.341c0 .65.342.991.995.991h2.984c1.088 0 1.896.248 2.393.743.497.496.777 1.3.777 2.353v.837c0 1.083-.249 1.857-.777 2.353-.497.495-1.305.743-2.393.743-.56 0-1.15 0-1.803-.031l-1.523-.062c-1.119-.062-2.3-.124-3.512-.217v-2.23h.031zM21.957 8.525h6.65c1.088 0 1.897.248 2.394.743.497.496.777 1.239.777 2.23 0 .65-.156 1.177-.435 1.61-.28.403-.653.712-1.057.867.901.248 1.523.836 1.834 1.765.124.34.155.743.155 1.177 0 1.083-.249 1.858-.777 2.353-.497.495-1.305.743-2.393.743h-7.148V8.525zm6.837 3.283c0-.65-.342-.991-.994-.991H24.97v2.291H27.8c.652 0 .994-.34.994-.99v-.31zm.497 4.613c0-.65-.341-.99-.994-.99H24.97v2.29h3.326c.653 0 .994-.34.994-.99v-.31zM33.798 8.525h6.993c1.15 0 2.02.248 2.549.774.528.527.777 1.363.777 2.509v1.486c0 .898-.156 1.61-.467 2.105-.31.496-.777.836-1.46.991l2.082 3.623H41.04l-1.927-3.437h-2.331v3.437h-2.984V8.525zm7.335 3.283c0-.65-.342-.991-.995-.991h-3.356v3.437h3.325c.653 0 .995-.34.995-.991v-1.455h.03zM67.768 20.013h-3.17l-4.009-6.905v6.905h-2.984V8.525h3.17l4.01 6.905V8.525h2.983zM76.253 8.525c1.243 0 2.207.31 2.86.96.652.65.963 1.58.963 2.818v3.932c0 1.239-.31 2.168-.963 2.818-.653.65-1.617.96-2.86.96h-6.495V8.525h6.495zm.84 3.778c0-.99-.498-1.486-1.492-1.486h-2.829v6.905h2.829c.994 0 1.491-.496 1.491-1.487v-3.932zM50.55 6.203c-2.952 0-5.346 2.384-5.346 5.326v7.215c0 .619.529 1.145 1.15 1.145h8.423c.622 0 1.15-.526 1.15-1.145V11.56c0-2.942-2.393-5.357-5.377-5.357zm0 6.286c-.963 0-1.71-.774-1.71-1.703 0-.93.778-1.703 1.71-1.703.964 0 1.71.774 1.71 1.703s-.746 1.703-1.71 1.703z"/>
    </g>
</svg>
